<?xml version="1.0" encoding="UTF-8" standalone="no"?>
<!-- Generator: Adobe Illustrator 13.0.2, SVG Export Plug-In . SVG Version: 6.00 Build 14948)  -->

<svg
   xmlns:i="http://ns.adobe.com/AdobeIllustrator/10.0/"
   xmlns:dc="http://purl.org/dc/elements/1.1/"
   xmlns:cc="http://creativecommons.org/ns#"
   xmlns:rdf="http://www.w3.org/1999/02/22-rdf-syntax-ns#"
   xmlns:svg="http://www.w3.org/2000/svg"
   xmlns="http://www.w3.org/2000/svg"
   xmlns:sodipodi="http://sodipodi.sourceforge.net/DTD/sodipodi-0.dtd"
   xmlns:inkscape="http://www.inkscape.org/namespaces/inkscape"
   xml:space="preserve"
   viewBox="0 0 64 64"
   version="1.1"
   i:rulerOrigin="0 0"
   i:viewOrigin="274.5 427.5"
   i:pageBounds="0 792 612 0"
   y="0px"
   x="0px"
   enable-background="new 0 0 64 64"
   id="svg3406"
   inkscape:version="0.91 r13725"
   sodipodi:docname="house.svg"><defs
     id="defs3455" /><sodipodi:namedview
     pagecolor="#ffffff"
     bordercolor="#666666"
     borderopacity="1"
     objecttolerance="10"
     gridtolerance="10"
     guidetolerance="10"
     inkscape:pageopacity="0"
     inkscape:pageshadow="2"
     inkscape:window-width="1873"
     inkscape:window-height="1056"
     id="namedview3453"
     showgrid="false"
     inkscape:zoom="7.1796875"
     inkscape:cx="44.360134"
     inkscape:cy="29.214363"
     inkscape:window-x="47"
     inkscape:window-y="24"
     inkscape:window-maximized="1"
     inkscape:current-layer="svg3406" /><metadata
     id="metadata3451"><rdf:RDF><cc:Work><dc:format>image/svg+xml</dc:format><dc:type
           rdf:resource="http://purl.org/dc/dcmitype/StillImage" /><cc:license
           rdf:resource="http://creativecommons.org/licenses/publicdomain/" /><dc:publisher><cc:Agent
             rdf:about="http://openclipart.org/"><dc:title>Openclipart</dc:title></cc:Agent></dc:publisher><dc:title></dc:title><dc:date>2008-02-27T20:52:06</dc:date><dc:description>A set of units and other graphical elements for a round-based strategy-game that I never made ... If you do so - tell me :)</dc:description><dc:source>https://openclipart.org/detail/17084/strategy-game-tileset-by-mrbordello-17084</dc:source><dc:creator><cc:Agent><dc:title>MrBordello</dc:title></cc:Agent></dc:creator><dc:subject><rdf:Bag><rdf:li>archer</rdf:li><rdf:li>computergame</rdf:li><rdf:li>game</rdf:li><rdf:li>horse</rdf:li><rdf:li>knight</rdf:li><rdf:li>map</rdf:li><rdf:li>set</rdf:li><rdf:li>soldiers</rdf:li><rdf:li>strategy</rdf:li><rdf:li>sword</rdf:li><rdf:li>tile</rdf:li><rdf:li>tileset</rdf:li><rdf:li>unit</rdf:li><rdf:li>videogame</rdf:li><rdf:li>viking</rdf:li></rdf:Bag></dc:subject></cc:Work><cc:License
         rdf:about="http://creativecommons.org/licenses/publicdomain/"><cc:permits
           rdf:resource="http://creativecommons.org/ns#Reproduction" /><cc:permits
           rdf:resource="http://creativecommons.org/ns#Distribution" /><cc:permits
           rdf:resource="http://creativecommons.org/ns#DerivativeWorks" /></cc:License></rdf:RDF></metadata><path
     id="path14842"
     sodipodi:nodetypes="ccccc"
     style="fill:#000000;stroke:#000000;stroke-width:0.63666791;stroke-miterlimit:4;stroke-dasharray:none;stroke-opacity:1"
     inkscape:connector-curvature="0"
     d="m 25.751682,53.08155 2.054791,-9.311404 3.905458,0 3.545531,9.311404 z" /><g
     id="g9854"><g
       id="g9842"><g
         style="stroke:#000000;stroke-width:11.61202087;stroke-miterlimit:4;stroke-dasharray:none;stroke-opacity:1"
         id="g18181"
         transform="matrix(0.20894638,0,0,0.23261058,74.248757,-296.95215)"><path
           id="path14838"
           d="m -108.04,1465.2 -15.188,-80.974 -124.88,0 -15.188,80.974 z"
           sodipodi:nodetypes="ccccc"
           style="fill:#a0892c;stroke:#000000;stroke-width:11.61202087;stroke-miterlimit:4;stroke-dasharray:none;stroke-opacity:1"
           inkscape:connector-curvature="0" /><path
           id="path14840"
           sodipodi:nodetypes="cccccccccccccccccccccccccccccscc"
           style="fill:#786721;stroke:#000000;stroke-width:11.61202087;stroke-miterlimit:4;stroke-dasharray:none;stroke-opacity:1"
           inkscape:connector-curvature="0"
           d="m -281.69,1412 5.9758,0.9102 7.9677,-8.4197 4.5529,6.1441 4.5529,-7.0544 0.8537,14.791 9.9596,-13.881 1.9919,7.737 5.9758,-10.695 8.8214,0.2276 7.6831,7.5094 8.8214,-9.785 3.4147,12.516 19.35,1.1377 2.561,-10.013 6.2603,8.1922 7.114,-9.7851 7.6831,4.0961 4.2684,-6.3717 5.6912,-2.5032 2.2765,15.247 8.2522,-9.7851 3.9839,7.2819 12.805,0 6.8295,-9.1024 9.3904,6.1441 0,-9.33 11.667,9.33 8.1409,0.3473 c 0,0 -52.211,-57.188 -90.819,-57.188 -38.608,0 -90.663,56.846 -90.663,56.846 z" /></g><g
         id="g18175"
         style="stroke:#000000;stroke-width:26.22283513;stroke-miterlimit:4;stroke-dasharray:none;stroke-opacity:1"
         transform="matrix(-0.09396765,0,0,0.10142436,133.06045,-244.66032)"><path
           id="path18177"
           d="m 814.01,3011.6 27.856,-185.71 229.04,0 27.856,185.71 z"
           sodipodi:nodetypes="ccccc"
           style="fill:#a0892c;stroke:#000000;stroke-width:26.22283513;stroke-miterlimit:4;stroke-dasharray:none;stroke-opacity:1"
           inkscape:connector-curvature="0" /><path
           id="path18179"
           sodipodi:nodetypes="cccccccccccccccccccccccccccccscc"
           style="fill:#786721;stroke:#000000;stroke-width:26.22283513;stroke-miterlimit:4;stroke-dasharray:none;stroke-opacity:1"
           inkscape:connector-curvature="0"
           d="m 1132.5,2889.4 -10.96,2.0876 -14.613,-19.31 -8.3502,14.091 -8.3502,-16.179 -1.5657,33.923 -18.266,-31.835 -3.6532,17.744 -10.96,-24.529 -16.179,0.5219 -14.091,17.222 -16.179,-22.441 -6.2627,28.704 -35.488,2.6094 -4.697,-22.963 -11.482,18.788 -13.047,-22.441 -14.091,9.394 -7.8283,-14.613 -10.438,-5.7408 -4.1751,34.967 -15.135,-22.441 -7.3065,16.7 -23.485,0 -12.525,-20.876 -17.222,14.091 0,-21.398 -21.397,21.398 -14.931,0.7965 c 0,0 95.757,-131.16 166.56,-131.16 70.808,0 166.28,130.37 166.28,130.37 z" /></g><g
         id="g14809"
         style="stroke:#000000;stroke-width:23.81522017;stroke-miterlimit:4;stroke-dasharray:none;stroke-opacity:1"
         transform="matrix(0.11392747,0,0,0.10142436,-86.620108,-241.51147)"><path
           id="path16009"
           sodipodi:nodetypes="ccccc"
           style="fill:#a0892c;stroke:#000000;stroke-width:23.81522017;stroke-miterlimit:4;stroke-dasharray:none;stroke-opacity:1"
           inkscape:connector-curvature="0"
           d="m 814.01,3011.6 27.856,-185.71 229.04,0 27.856,185.71 z" /><path
           id="path14036"
           sodipodi:nodetypes="cccccccccccccccccccccccccccccscc"
           style="fill:#786721;stroke:#000000;stroke-width:23.81522017;stroke-miterlimit:4;stroke-dasharray:none;stroke-opacity:1"
           inkscape:connector-curvature="0"
           d="m 1132.5,2889.4 -10.96,2.0876 -14.613,-19.31 -8.3502,14.091 -8.3502,-16.179 -1.5657,33.923 -18.266,-31.835 -3.6532,17.744 -10.96,-24.529 -16.179,0.5219 -14.091,17.222 -16.179,-22.441 -6.2627,28.704 -35.488,2.6094 -4.697,-22.963 -11.482,18.788 -13.047,-22.441 -14.091,9.394 -7.8283,-14.613 -10.438,-5.7408 -4.1751,34.967 -15.135,-22.441 -7.3065,16.7 -23.485,0 -12.525,-20.876 -17.222,14.091 0,-21.398 -21.397,21.398 -14.931,0.7965 c 0,0 95.757,-131.16 166.56,-131.16 70.808,0 166.28,130.37 166.28,130.37 z" /><path
           id="path14039"
           sodipodi:nodetypes="ccccc"
           style="fill:#000000;stroke:#000000;stroke-width:23.81522017;stroke-miterlimit:4;stroke-dasharray:none;stroke-opacity:1"
           inkscape:connector-curvature="0"
           d="m 1087.4,3009.6 -18.036,-91.806 -34.281,0 -31.121,91.806 z" /></g></g></g></svg>